<svg width="1018" height="1002" viewBox="0 0 1018 1002" fill="none" xmlns="http://www.w3.org/2000/svg">
<ellipse cx="191.979" cy="22.5" rx="191.979" ry="22.5" transform="matrix(-1 0 0 1 1018 897)" fill="#0A0A0A"/>
<ellipse cx="287.721" cy="35.9642" rx="287.721" ry="35.9642" transform="matrix(-1 0 0 1 576.442 929.498)" fill="#0A0A0A"/>
<path d="M792.576 136.584C739.807 80.8946 686.951 80.8945 666.473 80.8945L614.739 706.587C635.432 732.794 677.251 761.185 695.574 772.104C775.405 823.867 877.312 834.536 935.891 840.668L938.08 840.898C1035.08 851.064 1008.14 824.518 980.114 781.932C947.78 732.793 945.568 719.69 925.146 680.379C899.619 631.241 886.345 551.528 879.878 503.482C877.723 465.264 873.412 381.739 873.412 352.792C873.412 280.723 870.178 218.481 792.576 136.584Z" fill="white" stroke="#343434" stroke-width="4"/>
<path d="M262.296 116.929C320.498 38.3077 411.033 -1.73035 482.168 2.27351C598.571 8.82526 647.072 64.5151 679.407 93.998C711.741 123.481 792.576 261.068 766.709 405.206C734.375 585.379 702.04 605.035 611.505 709.863C520.969 814.691 353.909 878.024 281.697 896.587C230.724 909.69 65.0579 931.53 32.7238 929.346C-15.7775 926.07 6.85645 890.035 16.5566 880.208L39.1906 854.001C103.859 768.828 123.259 709.862 145.893 657.449C179.281 580.131 191.161 492.563 191.161 457.62V336.413C191.161 247.964 224.473 168.023 262.296 116.929Z" fill="#D9D9D9" stroke="#343434" stroke-width="4"/>
<ellipse cx="74.3685" cy="108.104" rx="74.3685" ry="108.104" transform="matrix(-1 0 0 1 702.039 152.964)" fill="black"/>
<ellipse cx="74.3685" cy="108.104" rx="74.3685" ry="108.104" transform="matrix(-1 0 0 1 533.901 152.964)" fill="black"/>
<path d="M544.783 301.951L409.044 145.645L676.785 142.477L544.783 301.951Z" fill="#D9D9D9"/>
</svg>
